# xmcd
#
# Track frame offsets: 
#        150
#        20367
#        39665
#        55810
#        71672
#        86965
#        101507
#        116165
#        133042
#        145492
#        166502
#        181252
#        195930
#
# Disc length: 2937 seconds
#
# Revision: 3
# Processed by: cddbd v1.5.1PL2 Copyright (c) Steve Scherf et al.
# Submitted via: ExactAudioCopy v0.95b4
#
DISCID=b10b770d
DTITLE=Seconds Flat - Seconds Flat
DYEAR=1997
DGENRE=Country
TTITLE0=The Good Life
TTITLE1=Me and My Friend Heartache
TTITLE2=Slow Dance Across the Moon
TTITLE3=She Likes
TTITLE4=Murphy's Law
TTITLE5=Three O'clock
TTITLE6=In Your Arms
TTITLE7=Stella
TTITLE8=Gone
TTITLE9=Trapped Between the Lines
TTITLE10=Fire and Brimstone
TTITLE11=Walk Away
TTITLE12=Saluda
EXTD=
EXTT0=
EXTT1=
EXTT2=
EXTT3=
EXTT4=
EXTT5=
EXTT6=
EXTT7=
EXTT8=
EXTT9=
EXTT10=
EXTT11=
EXTT12=
PLAYORDER=
